<?xml version="1.0" encoding="UTF-8" standalone="no"?>
<!DOCTYPE svg PUBLIC "-//W3C//DTD SVG 1.0//EN" "http://www.w3.org/TR/2001/PR-SVG-20010719/DTD/svg10.dtd">
<svg width="59cm" height="21cm" viewBox="3 67 1172 418" xmlns="http://www.w3.org/2000/svg" xmlns:xlink="http://www.w3.org/1999/xlink">
  <g>
    <rect style="fill: #ffffff" x="4" y="68" width="1170" height="416"/>
    <rect style="fill: none; fill-opacity:0; stroke-width: 2; stroke: #000000" x="4" y="68" width="1170" height="416"/>
  </g>
  <g>
    <ellipse style="fill: #ffffff" cx="748.5" cy="306.8" rx="218.5" ry="169.5"/>
    <ellipse style="fill: none; fill-opacity:0; stroke-width: 2; stroke-dasharray: 4; stroke: #800080" cx="748.5" cy="306.8" rx="218.5" ry="169.5"/>
  </g>
  <g>
    <ellipse style="fill: #ffffff" cx="754.5" cy="249.8" rx="165.5" ry="101.5"/>
    <ellipse style="fill: none; fill-opacity:0; stroke-width: 2; stroke-dasharray: 4; stroke: #800080" cx="754.5" cy="249.8" rx="165.5" ry="101.5"/>
  </g>
  <g>
    <ellipse style="fill: #ffffff" cx="753.5" cy="198.8" rx="62.5" ry="45.5"/>
    <ellipse style="fill: none; fill-opacity:0; stroke-width: 2; stroke-dasharray: 4; stroke: #800080" cx="753.5" cy="198.8" rx="62.5" ry="45.5"/>
  </g>
  <g>
    <ellipse style="fill: #ffffff" cx="227.5" cy="298.5" rx="218.5" ry="169.5"/>
    <ellipse style="fill: none; fill-opacity:0; stroke-width: 2; stroke-dasharray: 4; stroke: #800080" cx="227.5" cy="298.5" rx="218.5" ry="169.5"/>
  </g>
  <g>
    <ellipse style="fill: #ffffff" cx="233.5" cy="241.5" rx="165.5" ry="101.5"/>
    <ellipse style="fill: none; fill-opacity:0; stroke-width: 2; stroke-dasharray: 4; stroke: #800080" cx="233.5" cy="241.5" rx="165.5" ry="101.5"/>
  </g>
  <g>
    <ellipse style="fill: #ffffff" cx="232.5" cy="190.5" rx="62.5" ry="45.5"/>
    <ellipse style="fill: none; fill-opacity:0; stroke-width: 2; stroke-dasharray: 4; stroke: #800080" cx="232.5" cy="190.5" rx="62.5" ry="45.5"/>
  </g>
  <g>
    <ellipse style="fill: #ffffff" cx="167" cy="291" rx="20" ry="20"/>
    <ellipse style="fill: none; fill-opacity:0; stroke-width: 2; stroke: #000000" cx="167" cy="291" rx="20" ry="20"/>
    <ellipse style="fill: none; fill-opacity:0; stroke-width: 2; stroke: #000000" cx="167" cy="291" rx="20" ry="20"/>
  </g>
  <g>
    <ellipse style="fill: #ffffff" cx="97" cy="405" rx="20" ry="20"/>
    <ellipse style="fill: none; fill-opacity:0; stroke-width: 2; stroke: #000000" cx="97" cy="405" rx="20" ry="20"/>
    <ellipse style="fill: none; fill-opacity:0; stroke-width: 2; stroke: #000000" cx="97" cy="405" rx="20" ry="20"/>
  </g>
  <g>
    <ellipse style="fill: #ffffff" cx="227" cy="405" rx="20" ry="20"/>
    <ellipse style="fill: none; fill-opacity:0; stroke-width: 2; stroke: #000000" cx="227" cy="405" rx="20" ry="20"/>
    <ellipse style="fill: none; fill-opacity:0; stroke-width: 2; stroke: #000000" cx="227" cy="405" rx="20" ry="20"/>
  </g>
  <g>
    <ellipse style="fill: #ffffff" cx="358" cy="404" rx="20" ry="20"/>
    <ellipse style="fill: none; fill-opacity:0; stroke-width: 2; stroke: #000000" cx="358" cy="404" rx="20" ry="20"/>
    <ellipse style="fill: none; fill-opacity:0; stroke-width: 2; stroke: #000000" cx="358" cy="404" rx="20" ry="20"/>
  </g>
  <g>
    <ellipse style="fill: #ffffff" cx="293" cy="292" rx="20" ry="20"/>
    <ellipse style="fill: none; fill-opacity:0; stroke-width: 2; stroke: #000000" cx="293" cy="292" rx="20" ry="20"/>
    <ellipse style="fill: none; fill-opacity:0; stroke-width: 2; stroke: #000000" cx="293" cy="292" rx="20" ry="20"/>
  </g>
  <g>
    <ellipse style="fill: #ffffff" cx="232" cy="187" rx="20" ry="20"/>
    <ellipse style="fill: none; fill-opacity:0; stroke-width: 2; stroke: #000000" cx="232" cy="187" rx="20" ry="20"/>
    <ellipse style="fill: none; fill-opacity:0; stroke-width: 2; stroke: #000000" cx="232" cy="187" rx="20" ry="20"/>
  </g>
  <g>
    <ellipse style="fill: #ffffff" cx="686" cy="287.3" rx="20" ry="20"/>
    <ellipse style="fill: none; fill-opacity:0; stroke-width: 2; stroke: #000000" cx="686" cy="287.3" rx="20" ry="20"/>
    <ellipse style="fill: none; fill-opacity:0; stroke-width: 2; stroke: #000000" cx="686" cy="287.3" rx="20" ry="20"/>
  </g>
  <g>
    <ellipse style="fill: #ffffff" cx="616" cy="401.3" rx="20" ry="20"/>
    <ellipse style="fill: none; fill-opacity:0; stroke-width: 2; stroke: #000000" cx="616" cy="401.3" rx="20" ry="20"/>
    <ellipse style="fill: none; fill-opacity:0; stroke-width: 2; stroke: #000000" cx="616" cy="401.3" rx="20" ry="20"/>
  </g>
  <g>
    <ellipse style="fill: #ffffff" cx="746" cy="401.3" rx="20" ry="20"/>
    <ellipse style="fill: none; fill-opacity:0; stroke-width: 2; stroke: #000000" cx="746" cy="401.3" rx="20" ry="20"/>
    <ellipse style="fill: none; fill-opacity:0; stroke-width: 2; stroke: #000000" cx="746" cy="401.3" rx="20" ry="20"/>
  </g>
  <g>
    <ellipse style="fill: #ffffff" cx="877" cy="400.3" rx="20" ry="20"/>
    <ellipse style="fill: none; fill-opacity:0; stroke-width: 2; stroke: #000000" cx="877" cy="400.3" rx="20" ry="20"/>
    <ellipse style="fill: none; fill-opacity:0; stroke-width: 2; stroke: #000000" cx="877" cy="400.3" rx="20" ry="20"/>
  </g>
  <g>
    <ellipse style="fill: #ffffff" cx="812" cy="288.3" rx="20" ry="20"/>
    <ellipse style="fill: none; fill-opacity:0; stroke-width: 2; stroke: #000000" cx="812" cy="288.3" rx="20" ry="20"/>
    <ellipse style="fill: none; fill-opacity:0; stroke-width: 2; stroke: #000000" cx="812" cy="288.3" rx="20" ry="20"/>
  </g>
  <g>
    <ellipse style="fill: #ffffff" cx="751" cy="183.3" rx="20" ry="20"/>
    <ellipse style="fill: none; fill-opacity:0; stroke-width: 2; stroke: #000000" cx="751" cy="183.3" rx="20" ry="20"/>
    <ellipse style="fill: none; fill-opacity:0; stroke-width: 2; stroke: #000000" cx="751" cy="183.3" rx="20" ry="20"/>
  </g>
  <g>
    <line style="fill: none; fill-opacity:0; stroke-width: 2; stroke: #000000" x1="107.98" y1="387.118" x2="150.925" y2="317.179"/>
    <polygon style="fill: #000000" points="154.85,310.788 153.878,321.926 150.925,317.179 145.356,316.693 "/>
    <polygon style="fill: none; fill-opacity:0; stroke-width: 2; stroke: #000000" points="154.85,310.788 153.878,321.926 150.925,317.179 145.356,316.693 "/>
  </g>
  <g>
    <line style="fill: none; fill-opacity:0; stroke-width: 2; stroke: #000000" x1="217.244" y1="386.464" x2="181.29" y2="318.152"/>
    <polygon style="fill: #000000" points="177.797,311.515 186.879,318.035 181.29,318.152 178.03,322.693 "/>
    <polygon style="fill: none; fill-opacity:0; stroke-width: 2; stroke: #000000" points="177.797,311.515 186.879,318.035 181.29,318.152 178.03,322.693 "/>
  </g>
  <g>
    <line style="fill: none; fill-opacity:0; stroke-width: 2; stroke: #000000" x1="347.459" y1="385.837" x2="308.428" y2="318.584"/>
    <polygon style="fill: #000000" points="304.663,312.097 314.007,318.236 308.428,318.584 305.358,323.256 "/>
    <polygon style="fill: none; fill-opacity:0; stroke-width: 2; stroke: #000000" points="304.663,312.097 314.007,318.236 308.428,318.584 305.358,323.256 "/>
  </g>
  <g>
    <line style="fill: none; fill-opacity:0; stroke-width: 2; stroke: #000000" x1="282.449" y1="273.838" x2="247.442" y2="213.581"/>
    <polygon style="fill: #000000" points="243.675,207.096 253.021,213.231 247.442,213.581 244.375,218.254 "/>
    <polygon style="fill: none; fill-opacity:0; stroke-width: 2; stroke: #000000" points="243.675,207.096 253.021,213.231 247.442,213.581 244.375,218.254 "/>
  </g>
  <g>
    <line style="fill: none; fill-opacity:0; stroke-width: 2; stroke: #000000" x1="178.124" y1="273.201" x2="215.716" y2="213.055"/>
    <polygon style="fill: #000000" points="219.691,206.695 218.631,217.825 215.716,213.055 210.151,212.525 "/>
    <polygon style="fill: none; fill-opacity:0; stroke-width: 2; stroke: #000000" points="219.691,206.695 218.631,217.825 215.716,213.055 210.151,212.525 "/>
  </g>
  <g>
    <line style="fill: none; fill-opacity:0; stroke-width: 2; stroke: #000000" x1="626.98" y1="383.418" x2="669.925" y2="313.479"/>
    <polygon style="fill: #000000" points="673.85,307.088 672.878,318.226 669.925,313.479 664.356,312.993 "/>
    <polygon style="fill: none; fill-opacity:0; stroke-width: 2; stroke: #000000" points="673.85,307.088 672.878,318.226 669.925,313.479 664.356,312.993 "/>
  </g>
  <g>
    <line style="fill: none; fill-opacity:0; stroke-width: 2; stroke: #000000" x1="756.59" y1="383.168" x2="796.499" y2="314.839"/>
    <polygon style="fill: #000000" points="800.282,308.363 799.556,319.52 796.499,314.839 790.921,314.476 "/>
    <polygon style="fill: none; fill-opacity:0; stroke-width: 2; stroke: #000000" points="800.282,308.363 799.556,319.52 796.499,314.839 790.921,314.476 "/>
  </g>
  <g>
    <line style="fill: none; fill-opacity:0; stroke-width: 2; stroke: #000000" x1="866.459" y1="382.137" x2="827.428" y2="314.884"/>
    <polygon style="fill: #000000" points="823.663,308.397 833.007,314.536 827.428,314.884 824.358,319.556 "/>
    <polygon style="fill: none; fill-opacity:0; stroke-width: 2; stroke: #000000" points="823.663,308.397 833.007,314.536 827.428,314.884 824.358,319.556 "/>
  </g>
  <g>
    <line style="fill: none; fill-opacity:0; stroke-width: 2; stroke: #000000" x1="801.449" y1="270.138" x2="766.442" y2="209.881"/>
    <polygon style="fill: #000000" points="762.675,203.396 772.021,209.531 766.442,209.881 763.375,214.554 "/>
    <polygon style="fill: none; fill-opacity:0; stroke-width: 2; stroke: #000000" points="762.675,203.396 772.021,209.531 766.442,209.881 763.375,214.554 "/>
  </g>
  <g>
    <line style="fill: none; fill-opacity:0; stroke-width: 2; stroke: #000000" x1="697.124" y1="269.501" x2="734.716" y2="209.355"/>
    <polygon style="fill: #000000" points="738.691,202.995 737.631,214.125 734.716,209.355 729.151,208.825 "/>
    <polygon style="fill: none; fill-opacity:0; stroke-width: 2; stroke: #000000" points="738.691,202.995 737.631,214.125 734.716,209.355 729.151,208.825 "/>
  </g>
  <g>
    <line style="fill: none; fill-opacity:0; stroke-width: 2; stroke-dasharray: 4; stroke: #0000ff" x1="312.897" y1="298.733" x2="586.881" y2="391.446"/>
    <polygon style="fill: #0000ff" points="593.985,393.85 582.91,395.381 586.881,391.446 586.116,385.909 "/>
    <polygon style="fill: none; fill-opacity:0; stroke-width: 2; stroke: #0000ff" points="593.985,393.85 582.91,395.381 586.881,391.446 586.116,385.909 "/>
  </g>
  <g>
    <path style="fill: none; fill-opacity:0; stroke-width: 2; stroke-dasharray: 4; stroke: #0000ff" d="M 252.839,184.443 A 28.0519,28.0519 0 1 0 211.718,165.269"/>
    <polygon style="fill: #0000ff" points="213.876,172.067 204.528,165.934 210.107,165.583 213.173,160.909 "/>
    <polygon style="fill: none; fill-opacity:0; stroke-width: 2; stroke: #0000ff" points="213.876,172.067 204.528,165.934 210.107,165.583 213.173,160.909 "/>
  </g>
  <g>
    <path style="fill: none; fill-opacity:0; stroke-width: 2; stroke-dasharray: 4; stroke: #ff0000" d="M 252.904,184.941 A 35.0443,35.0443 0 1 0 207.718,168.143"/>
    <polygon style="fill: #ff0000" points="211.513,174.33 201.129,170.185 206.526,168.728 208.598,163.536 "/>
    <polygon style="fill: none; fill-opacity:0; stroke-width: 2; stroke: #ff0000" points="211.513,174.33 201.129,170.185 206.526,168.728 208.598,163.536 "/>
  </g>
  <g>
    <path style="fill: none; fill-opacity:0; stroke-width: 2; stroke-dasharray: 4; stroke: #0000ff" d="M 303.486,263.372 A 68.009,68.009 0 0 0 252.898,189.013"/>
    <polygon style="fill: #0000ff" points="302.193,270.692 300.011,259.727 304.174,263.458 309.656,262.367 "/>
    <polygon style="fill: none; fill-opacity:0; stroke-width: 2; stroke: #0000ff" points="302.193,270.692 300.011,259.727 304.174,263.458 309.656,262.367 "/>
  </g>
  <text font-size="12.8" style="fill: #000000;text-anchor:start;font-family:sans-serif;font-style:normal;font-weight:normal" x="166" y="194">
    <tspan x="166" y="194">Nutzer</tspan>
  </text>
  <text font-size="12.8" style="fill: #000000;text-anchor:start;font-family:sans-serif;font-style:normal;font-weight:normal" x="327" y="263">
    <tspan x="327" y="263"></tspan>
  </text>
  <text font-size="12.8" style="fill: #000000;text-anchor:start;font-family:sans-serif;font-style:normal;font-weight:normal" x="317" y="284">
    <tspan x="317" y="284">Gruppe 1</tspan>
  </text>
  <text font-size="12.8" style="fill: #000000;text-anchor:start;font-family:sans-serif;font-style:normal;font-weight:normal" x="561" y="286">
    <tspan x="561" y="286">Objektgruppe 1</tspan>
  </text>
  <text font-size="12.8" style="fill: #000000;text-anchor:start;font-family:sans-serif;font-style:normal;font-weight:normal" x="778" y="186.3">
    <tspan x="778" y="186.3">Objekt 1</tspan>
  </text>
  <text font-size="12.8" style="fill: #000000;text-anchor:start;font-family:sans-serif;font-style:normal;font-weight:normal" x="464" y="342">
    <tspan x="464" y="342">darf lesen</tspan>
  </text>
  <text font-size="12.8" style="fill: #000000;text-anchor:start;font-family:sans-serif;font-style:normal;font-weight:normal" x="223" y="248">
    <tspan x="223" y="248">entält</tspan>
  </text>
  <text font-size="12.8" style="fill: #000000;text-anchor:start;font-family:sans-serif;font-style:normal;font-weight:normal" x="307" y="228">
    <tspan x="307" y="228">darf lesen</tspan>
  </text>
  <text font-size="12.8" style="fill: #000000;text-anchor:start;font-family:sans-serif;font-style:normal;font-weight:normal" x="235" y="93">
    <tspan x="235" y="93">darf lesen</tspan>
    <tspan x="235" y="109">und schreiben</tspan>
  </text>
  <text font-size="12.8" style="fill: #000000;text-anchor:start;font-family:sans-serif;font-style:normal;font-weight:normal" x="670" y="237">
    <tspan x="670" y="237">enthält</tspan>
  </text>
  <g>
    <rect style="fill: #ffc0cb" x="843" y="174.1" width="237.65" height="14.9"/>
    <text font-size="12.8" style="fill: #000000;text-anchor:start;font-family:sans-serif;font-style:normal;font-weight:700" x="843" y="186">
      <tspan x="843" y="186">Zugriff über Zone 1 nicht erlaubt</tspan>
    </text>
  </g>
  <g>
    <rect style="fill: #ffc0cb" x="927" y="277.1" width="237.65" height="14.9"/>
    <text font-size="12.8" style="fill: #000000;text-anchor:start;font-family:sans-serif;font-style:normal;font-weight:700" x="927" y="289">
      <tspan x="927" y="289">Zugriff über Zone 2 nicht erlaubt</tspan>
    </text>
  </g>
  <text font-size="12.8" style="fill: #000000;text-anchor:start;font-family:sans-serif;font-style:normal;font-weight:normal" x="555" y="436">
    <tspan x="555" y="436">Objektübergruppe A</tspan>
  </text>
  <g>
    <rect style="fill: #90ee90" x="948" y="399.3" width="196.9" height="46.9"/>
    <text font-size="12.8" style="fill: #000000;text-anchor:start;font-family:sans-serif;font-style:normal;font-weight:700" x="948" y="411.2">
      <tspan x="948" y="411.2">Zugriff über Zone 3 erlaubt</tspan>
      <tspan x="948" y="427.2">(Nutzer&lt;-Gruppe~&gt;</tspan>
      <tspan x="948" y="443.2"> Gruppe-&gt;Gruppe-&gt;Objekt)</tspan>
    </text>
  </g>
  <g>
    <line style="fill: none; fill-opacity:0; stroke-width: 2; stroke-dasharray: 4; stroke: #4eacff" x1="313.964" y1="291.749" x2="655.3" y2="287.667"/>
    <polygon style="fill: #4eacff" points="662.8,287.577 652.86,292.697 655.3,287.667 652.741,282.697 "/>
    <polygon style="fill: none; fill-opacity:0; stroke-width: 2; stroke: #4eacff" points="662.8,287.577 652.86,292.697 655.3,287.667 652.741,282.697 "/>
  </g>
  <g>
    <line style="fill: none; fill-opacity:0; stroke-width: 2; stroke-dasharray: 4; stroke: #4eacff" x1="313.42" y1="287.153" x2="721.107" y2="190.395"/>
    <polygon style="fill: #4eacff" points="728.404,188.663 719.829,195.837 721.107,190.395 717.52,186.107 "/>
    <polygon style="fill: none; fill-opacity:0; stroke-width: 2; stroke: #4eacff" points="728.404,188.663 719.829,195.837 721.107,190.395 717.52,186.107 "/>
  </g>
  <g>
    <line style="fill: none; fill-opacity:0; stroke-width: 2; stroke-dasharray: 4; stroke: #4eacff" x1="252.986" y1="186.85" x2="720.278" y2="183.519"/>
    <polygon style="fill: #4eacff" points="727.778,183.466 717.814,188.537 720.278,183.519 717.742,178.537 "/>
    <polygon style="fill: none; fill-opacity:0; stroke-width: 2; stroke: #4eacff" points="727.778,183.466 717.814,188.537 720.278,183.519 717.742,178.537 "/>
  </g>
  <text font-size="12.8" style="fill: #000000;text-anchor:start;font-family:sans-serif;font-style:normal;font-weight:normal" x="466" y="268.2">
    <tspan x="466" y="268.2">darf lesen</tspan>
    <tspan x="466" y="284.2">(Cache)</tspan>
  </text>
  <text font-size="12.8" style="fill: #000000;text-anchor:start;font-family:sans-serif;font-style:normal;font-weight:normal" x="458" y="203.5">
    <tspan x="458" y="203.5">darf lesen</tspan>
    <tspan x="458" y="219.5">(Cache)</tspan>
  </text>
  <text font-size="12.8" style="fill: #000000;text-anchor:start;font-family:sans-serif;font-style:normal;font-weight:normal" x="589" y="276">
    <tspan x="589" y="276"></tspan>
  </text>
  <g>
    <rect style="fill: #4eacff" x="398" y="90.1" width="189.15" height="78.9"/>
    <text font-size="12.8" style="fill: #000000;text-anchor:start;font-family:sans-serif;font-style:normal;font-weight:700" x="398" y="102">
      <tspan x="398" y="102">Caching der rekursiv</tspan>
      <tspan x="398" y="118">ermittelten Zugriffsrechte</tspan>
      <tspan x="398" y="134">um Folgezugriffe via</tspan>
      <tspan x="398" y="150">Objektindex in O(log(n))</tspan>
      <tspan x="398" y="166">prüfen zu können:</tspan>
    </text>
  </g>
</svg>
